<!DOCTYPE svg PUBLIC "-//W3C//DTD SVG 20010904//EN" "http://www.w3.org/TR/2001/REC-SVG-20010904/DTD/svg10.dtd">
<svg version="1.0" xmlns="http://www.w3.org/2000/svg" width="320px" height="320px" viewBox="0 0 3200 3200" preserveAspectRatio="xMidYMid meet">
<g id="layer101" fill="#006fb6" stroke="none">
 <path d="M935 2626 c-308 -51 -517 -199 -640 -451 -29 -60 -61 -139 -69 -175 -24 -97 -38 -247 -29 -315 l8 -60 1010 -5 c556 -3 1019 -9 1030 -13 11 -5 32 -13 46 -19 l26 -9 -25 -62 c-22 -55 -24 -71 -20 -164 4 -93 8 -109 41 -175 20 -40 45 -84 56 -98 18 -22 21 -23 45 -11 82 44 181 163 212 255 l16 46 97 0 c113 0 180 17 239 60 l42 30 -30 61 c-68 134 -167 201 -325 220 -49 6 -90 12 -90 12 0 18 -112 219 -158 283 -222 312 -548 509 -962 580 -124 21 -418 27 -520 10z"/>
 <path d="M414 1577 c-2 -7 -3 -71 -2 -143 l3 -129 150 0 150 0 0 140 0 140 -148 3 c-115 2 -149 0 -153 -11z"/>
 <path d="M762 1578 c-18 -18 -17 -252 2 -267 9 -8 59 -11 152 -9 l139 3 0 140 0 140 -140 3 c-101 2 -144 -1 -153 -10z"/>
 <path d="M1104 1577 c-2 -7 -3 -71 -2 -143 l3 -129 150 0 150 0 0 140 0 140 -148 3 c-115 2 -149 0 -153 -11z"/>
 <path d="M1444 1577 c-2 -7 -3 -71 -2 -143 l3 -129 150 0 150 0 0 140 0 140 -148 3 c-115 2 -149 0 -153 -11z"/>
 <path d="M1784 1577 c-2 -7 -3 -71 -2 -143 l3 -129 150 0 150 0 0 140 0 140 -148 3 c-115 2 -149 0 -153 -11z"/>
 <path d="M754 1257 c-2 -7 -3 -69 -2 -138 l3 -124 150 0 150 0 0 135 0 135 -148 3 c-115 2 -149 0 -153 -11z"/>
 <path d="M1104 1257 c-2 -7 -3 -69 -2 -138 l3 -124 150 0 150 0 0 135 0 135 -148 3 c-115 2 -149 0 -153 -11z"/>
 <path d="M1444 1257 c-2 -7 -3 -69 -2 -138 l3 -124 150 0 150 0 0 135 0 135 -148 3 c-115 2 -149 0 -153 -11z"/>
 <path d="M1444 947 c-2 -7 -3 -71 -2 -143 l3 -129 150 0 150 0 3 129 c2 86 -1 133 -9 142 -16 20 -287 20 -295 1z"/>
 </g>

</svg>